<mxfile host="65bd71144e">
    <diagram id="C5RBs43oDa-KdzZeNtuy" name="Page-1">
        <mxGraphModel dx="1314" dy="966" grid="1" gridSize="10" guides="1" tooltips="1" connect="1" arrows="1" fold="1" page="1" pageScale="1" pageWidth="827" pageHeight="1169" math="0" shadow="0">
            <root>
                <mxCell id="WIyWlLk6GJQsqaUBKTNV-0"/>
                <mxCell id="WIyWlLk6GJQsqaUBKTNV-1" parent="WIyWlLk6GJQsqaUBKTNV-0"/>
                <mxCell id="44" value="true?" style="edgeStyle=none;rounded=0;sketch=0;html=1;exitX=0.5;exitY=1;exitDx=0;exitDy=0;entryX=0.5;entryY=0;entryDx=0;entryDy=0;elbow=vertical;" edge="1" parent="WIyWlLk6GJQsqaUBKTNV-1" source="5" target="6">
                    <mxGeometry relative="1" as="geometry"/>
                </mxCell>
                <mxCell id="5" value="&lt;b&gt;INITIALIZING&lt;/b&gt;&lt;br&gt;task_initializing()" style="rounded=1;whiteSpace=wrap;html=1;" vertex="1" parent="WIyWlLk6GJQsqaUBKTNV-1">
                    <mxGeometry x="353.5" y="330" width="120" height="60" as="geometry"/>
                </mxCell>
                <mxCell id="6" value="&lt;b&gt;CONTACTOR&lt;/b&gt;" style="rounded=1;whiteSpace=wrap;html=1;fillColor=none;verticalAlign=top;movable=1;container=1;autosize=0;resizable=1;" vertex="1" parent="WIyWlLk6GJQsqaUBKTNV-1">
                    <mxGeometry x="74" y="460" width="680" height="330" as="geometry">
                        <mxRectangle x="280" y="710" width="160" height="50" as="alternateBounds"/>
                    </mxGeometry>
                </mxCell>
                <mxCell id="29" value="&lt;b&gt;WAITING_MOTOR&lt;/b&gt;&lt;br&gt;task_waiting_motor()" style="rounded=1;whiteSpace=wrap;html=1;" vertex="1" parent="6">
                    <mxGeometry x="155.16" y="45" width="124.84" height="60" as="geometry"/>
                </mxCell>
                <mxCell id="30" value="&lt;b&gt;SEND_REQUEST&lt;/b&gt;&lt;br&gt;task_send_request()" style="rounded=1;whiteSpace=wrap;html=1;" vertex="1" parent="6">
                    <mxGeometry x="480" y="45" width="120" height="60" as="geometry"/>
                </mxCell>
                <mxCell id="43" value="delayed?" style="edgeStyle=none;rounded=0;sketch=0;html=1;exitX=1;exitY=0.5;exitDx=0;exitDy=0;entryX=0;entryY=0.5;entryDx=0;entryDy=0;elbow=vertical;" edge="1" parent="6" source="29" target="30">
                    <mxGeometry relative="1" as="geometry"/>
                </mxCell>
                <mxCell id="42" value="timeout?" style="edgeStyle=none;rounded=0;sketch=0;html=1;exitX=0;exitY=0;exitDx=0;exitDy=0;entryX=1;entryY=1;entryDx=0;entryDy=0;elbow=vertical;" edge="1" parent="6" source="31" target="29">
                    <mxGeometry relative="1" as="geometry"/>
                </mxCell>
                <mxCell id="31" value="&lt;b&gt;WAITING_RESPONSE&lt;/b&gt;&lt;br&gt;task_waiting_response()" style="rounded=1;whiteSpace=wrap;html=1;" vertex="1" parent="6">
                    <mxGeometry x="450" y="224.18" width="160" height="60" as="geometry"/>
                </mxCell>
                <mxCell id="41" value="request_sent" style="edgeStyle=none;rounded=0;sketch=0;html=1;exitX=0.75;exitY=1;exitDx=0;exitDy=0;entryX=0.75;entryY=0;entryDx=0;entryDy=0;elbow=vertical;" edge="1" parent="6" source="30" target="31">
                    <mxGeometry relative="1" as="geometry"/>
                </mxCell>
                <mxCell id="89" value="set_state_contactor()" style="edgeStyle=none;rounded=1;sketch=0;html=1;exitX=0.5;exitY=0;exitDx=0;exitDy=0;entryX=0.5;entryY=1;entryDx=0;entryDy=0;" edge="1" parent="6" source="64" target="29">
                    <mxGeometry relative="1" as="geometry"/>
                </mxCell>
                <mxCell id="64" value="" style="ellipse;whiteSpace=wrap;html=1;aspect=fixed;fillColor=#000000;" vertex="1" parent="6">
                    <mxGeometry x="202.99134477825464" y="195" width="29.184549356223176" height="29.184549356223176" as="geometry"/>
                </mxCell>
                <mxCell id="70" value="time++" style="edgeStyle=elbowEdgeStyle;sketch=0;html=1;rounded=1;exitX=0.75;exitY=0;exitDx=0;exitDy=0;entryX=1;entryY=0.5;entryDx=0;entryDy=0;" edge="1" parent="6" source="31" target="31">
                    <mxGeometry relative="1" as="geometry">
                        <mxPoint x="571.297339055794" y="225" as="sourcePoint"/>
                        <mxPoint x="600.4818884120172" y="255" as="targetPoint"/>
                        <Array as="points">
                            <mxPoint x="639.8810300429185" y="170"/>
                            <mxPoint x="649.6092131616595" y="255"/>
                        </Array>
                    </mxGeometry>
                </mxCell>
                <mxCell id="71" value="delay++" style="edgeStyle=elbowEdgeStyle;sketch=0;html=1;rounded=1;exitX=0.25;exitY=0;exitDx=0;exitDy=0;entryX=0;entryY=0.5;entryDx=0;entryDy=0;" edge="1" parent="6" source="29" target="29">
                    <mxGeometry relative="1" as="geometry">
                        <mxPoint x="58.36909871244635" y="105" as="sourcePoint"/>
                        <mxPoint x="87.55364806866953" y="135" as="targetPoint"/>
                        <Array as="points">
                            <mxPoint x="120" y="50"/>
                            <mxPoint x="137.1673819742489" y="135"/>
                        </Array>
                    </mxGeometry>
                </mxCell>
                <mxCell id="47" value="check_reverse()?" style="edgeStyle=none;rounded=0;sketch=0;html=1;exitX=0.25;exitY=0;exitDx=0;exitDy=0;elbow=vertical;entryX=0.75;entryY=1;entryDx=0;entryDy=0;" edge="1" parent="WIyWlLk6GJQsqaUBKTNV-1" source="7" target="6">
                    <mxGeometry relative="1" as="geometry">
                        <mxPoint x="597.26" y="790" as="targetPoint"/>
                    </mxGeometry>
                </mxCell>
                <mxCell id="54" value="(pot_zero_width&lt;br&gt;&amp;amp;&amp;amp; motor_on&lt;br&gt;&amp;amp;&amp;amp; dms)?&lt;br&gt;set_state_running()" style="edgeStyle=none;rounded=0;sketch=0;html=1;exitX=0;exitY=0.75;exitDx=0;exitDy=0;entryX=1;entryY=0.75;entryDx=0;entryDy=0;elbow=vertical;" edge="1" parent="WIyWlLk6GJQsqaUBKTNV-1" source="7" target="8">
                    <mxGeometry x="-0.0028" y="15" relative="1" as="geometry">
                        <mxPoint as="offset"/>
                    </mxGeometry>
                </mxCell>
                <mxCell id="7" value="&lt;b&gt;IDLE&lt;/b&gt;&lt;br&gt;task_idle()" style="rounded=1;whiteSpace=wrap;html=1;" vertex="1" parent="WIyWlLk6GJQsqaUBKTNV-1">
                    <mxGeometry x="554" y="880" width="120" height="60" as="geometry"/>
                </mxCell>
                <mxCell id="51" value="check_reverse()?" style="edgeStyle=none;rounded=0;sketch=0;html=1;exitX=0.5;exitY=0;exitDx=0;exitDy=0;elbow=vertical;entryX=0.25;entryY=1;entryDx=0;entryDy=0;" edge="1" parent="WIyWlLk6GJQsqaUBKTNV-1" source="8" target="6">
                    <mxGeometry relative="1" as="geometry"/>
                </mxCell>
                <mxCell id="55" value="!(motor_on &amp;amp; dms)?&lt;br&gt;set_state_idle()" style="edgeStyle=none;rounded=0;sketch=0;html=1;exitX=1;exitY=0.25;exitDx=0;exitDy=0;entryX=0;entryY=0.25;entryDx=0;entryDy=0;elbow=vertical;" edge="1" parent="WIyWlLk6GJQsqaUBKTNV-1" source="8" target="7">
                    <mxGeometry x="0.0028" y="25" relative="1" as="geometry">
                        <mxPoint as="offset"/>
                    </mxGeometry>
                </mxCell>
                <mxCell id="8" value="&lt;b&gt;RUNNING&lt;/b&gt;&lt;br&gt;task_running()" style="rounded=1;whiteSpace=wrap;html=1;" vertex="1" parent="WIyWlLk6GJQsqaUBKTNV-1">
                    <mxGeometry x="184" y="880" width="120" height="60" as="geometry"/>
                </mxCell>
                <mxCell id="28" value="" style="edgeStyle=none;rounded=0;sketch=0;html=1;elbow=vertical;exitX=0;exitY=0.5;exitDx=0;exitDy=0;" edge="1" parent="WIyWlLk6GJQsqaUBKTNV-1" source="9" target="83">
                    <mxGeometry relative="1" as="geometry"/>
                </mxCell>
                <mxCell id="9" value="&lt;b&gt;ERROR&lt;/b&gt;&lt;br&gt;error_task()" style="rounded=1;whiteSpace=wrap;html=1;" vertex="1" parent="WIyWlLk6GJQsqaUBKTNV-1">
                    <mxGeometry x="554" y="210" width="120" height="60" as="geometry"/>
                </mxCell>
                <mxCell id="11" value="" style="html=1;elbow=vertical;sketch=0;rounded=0;" edge="1" parent="WIyWlLk6GJQsqaUBKTNV-1" source="10" target="83">
                    <mxGeometry relative="1" as="geometry"/>
                </mxCell>
                <mxCell id="10" value="" style="ellipse;whiteSpace=wrap;html=1;aspect=fixed;fillColor=#000000;" vertex="1" parent="WIyWlLk6GJQsqaUBKTNV-1">
                    <mxGeometry x="254" y="225" width="30" height="30" as="geometry"/>
                </mxCell>
                <mxCell id="46" value="acknowledged?&lt;br&gt;set_state_idle()" style="edgeStyle=none;rounded=0;sketch=0;html=1;exitX=0.75;exitY=1;exitDx=0;exitDy=0;entryX=0.75;entryY=0;entryDx=0;entryDy=0;elbow=vertical;" edge="1" parent="WIyWlLk6GJQsqaUBKTNV-1" source="31" target="7">
                    <mxGeometry relative="1" as="geometry"/>
                </mxCell>
                <mxCell id="72" value="set_state_error()" style="html=1;elbow=vertical;sketch=0;rounded=0;" edge="1" parent="WIyWlLk6GJQsqaUBKTNV-1" source="75" target="9">
                    <mxGeometry relative="1" as="geometry">
                        <mxPoint x="674" y="310" as="targetPoint"/>
                        <mxPoint x="674" y="230" as="sourcePoint"/>
                    </mxGeometry>
                </mxCell>
                <mxCell id="75" value="From any state" style="text;html=1;strokeColor=none;fillColor=none;align=center;verticalAlign=middle;whiteSpace=wrap;rounded=0;" vertex="1" parent="WIyWlLk6GJQsqaUBKTNV-1">
                    <mxGeometry x="584" y="340" width="60" height="30" as="geometry"/>
                </mxCell>
                <mxCell id="82" value="time++" style="edgeStyle=elbowEdgeStyle;sketch=0;html=1;rounded=1;exitX=0.75;exitY=0;exitDx=0;exitDy=0;entryX=1;entryY=0.5;entryDx=0;entryDy=0;" edge="1" parent="WIyWlLk6GJQsqaUBKTNV-1" source="7" target="7">
                    <mxGeometry relative="1" as="geometry">
                        <mxPoint x="597.26" y="880" as="sourcePoint"/>
                        <mxPoint x="627.26" y="910" as="targetPoint"/>
                        <Array as="points">
                            <mxPoint x="707.26" y="880"/>
                            <mxPoint x="667.26" y="860"/>
                            <mxPoint x="678.26" y="910"/>
                        </Array>
                    </mxGeometry>
                </mxCell>
                <mxCell id="85" value="set_state_initializing()" style="rounded=1;sketch=0;html=1;exitX=0.5;exitY=1;exitDx=0;exitDy=0;entryX=0.5;entryY=0;entryDx=0;entryDy=0;" edge="1" parent="WIyWlLk6GJQsqaUBKTNV-1" source="83" target="5">
                    <mxGeometry relative="1" as="geometry"/>
                </mxCell>
                <mxCell id="83" value="" style="ellipse;whiteSpace=wrap;html=1;aspect=fixed;fillColor=none;" vertex="1" parent="WIyWlLk6GJQsqaUBKTNV-1">
                    <mxGeometry x="393.5" y="220" width="40" height="40" as="geometry"/>
                </mxCell>
                <mxCell id="90" value="MAM17 FINITE STATE MACHINE DIAGRAM" style="text;html=1;strokeColor=none;fillColor=none;align=center;verticalAlign=middle;whiteSpace=wrap;rounded=0;fontSize=20;fontStyle=1" vertex="1" parent="WIyWlLk6GJQsqaUBKTNV-1">
                    <mxGeometry x="179" y="155" width="470" height="30" as="geometry"/>
                </mxCell>
                <mxCell id="91" value="time++" style="edgeStyle=elbowEdgeStyle;sketch=0;html=1;rounded=1;exitX=0.25;exitY=0;exitDx=0;exitDy=0;entryX=0;entryY=0.5;entryDx=0;entryDy=0;" edge="1" parent="WIyWlLk6GJQsqaUBKTNV-1" source="8" target="8">
                    <mxGeometry relative="1" as="geometry">
                        <mxPoint x="100" y="880" as="sourcePoint"/>
                        <mxPoint x="130" y="910" as="targetPoint"/>
                        <Array as="points">
                            <mxPoint x="150" y="900"/>
                            <mxPoint x="123.25999999999999" y="860"/>
                            <mxPoint x="134.26" y="910"/>
                        </Array>
                    </mxGeometry>
                </mxCell>
                <mxCell id="95" value="" style="endArrow=none;dashed=1;html=1;dashPattern=1 3;strokeWidth=2;rounded=1;sketch=0;fontSize=20;entryX=0.5;entryY=1;entryDx=0;entryDy=0;exitX=0.5;exitY=0;exitDx=0;exitDy=0;" edge="1" parent="WIyWlLk6GJQsqaUBKTNV-1" source="104" target="97">
                    <mxGeometry width="50" height="50" relative="1" as="geometry">
                        <mxPoint x="930" y="320" as="sourcePoint"/>
                        <mxPoint x="930" y="280" as="targetPoint"/>
                    </mxGeometry>
                </mxCell>
                <mxCell id="96" value="MAM17" style="text;html=1;strokeColor=none;fillColor=none;align=center;verticalAlign=middle;whiteSpace=wrap;rounded=0;fontSize=20;fontStyle=1" vertex="1" parent="WIyWlLk6GJQsqaUBKTNV-1">
                    <mxGeometry x="1180" y="240" width="80" height="30" as="geometry"/>
                </mxCell>
                <mxCell id="97" value="MIC19" style="text;html=1;strokeColor=none;fillColor=none;align=center;verticalAlign=middle;whiteSpace=wrap;rounded=0;fontSize=20;fontStyle=1" vertex="1" parent="WIyWlLk6GJQsqaUBKTNV-1">
                    <mxGeometry x="890" y="240" width="80" height="30" as="geometry"/>
                </mxCell>
                <mxCell id="98" value="MAC22" style="text;html=1;strokeColor=none;fillColor=none;align=center;verticalAlign=middle;whiteSpace=wrap;rounded=0;fontSize=20;fontStyle=1" vertex="1" parent="WIyWlLk6GJQsqaUBKTNV-1">
                    <mxGeometry x="1520" y="240" width="80" height="30" as="geometry"/>
                </mxCell>
                <mxCell id="99" value="" style="endArrow=none;dashed=1;html=1;dashPattern=1 3;strokeWidth=2;rounded=1;sketch=0;fontSize=20;entryX=0.5;entryY=1;entryDx=0;entryDy=0;exitX=0.5;exitY=0;exitDx=0;exitDy=0;" edge="1" parent="WIyWlLk6GJQsqaUBKTNV-1" source="106" target="96">
                    <mxGeometry width="50" height="50" relative="1" as="geometry">
                        <mxPoint x="1219" y="720" as="sourcePoint"/>
                        <mxPoint x="1219" y="280" as="targetPoint"/>
                    </mxGeometry>
                </mxCell>
                <mxCell id="101" value="" style="endArrow=none;dashed=1;html=1;dashPattern=1 3;strokeWidth=2;rounded=1;sketch=0;fontSize=20;entryX=0.5;entryY=1;entryDx=0;entryDy=0;exitX=0.5;exitY=0;exitDx=0;exitDy=0;" edge="1" parent="WIyWlLk6GJQsqaUBKTNV-1" source="109" target="98">
                    <mxGeometry width="50" height="50" relative="1" as="geometry">
                        <mxPoint x="1560" y="720" as="sourcePoint"/>
                        <mxPoint x="1560" y="280" as="targetPoint"/>
                    </mxGeometry>
                </mxCell>
                <mxCell id="105" value="CAN_MSG_\&lt;br&gt;MIC19_\&lt;br&gt;MOTOR_MOTOR" style="edgeStyle=none;rounded=1;sketch=0;html=1;exitX=1;exitY=0.5;exitDx=0;exitDy=0;fontSize=12;" edge="1" parent="WIyWlLk6GJQsqaUBKTNV-1" source="104" target="106">
                    <mxGeometry relative="1" as="geometry">
                        <mxPoint x="1146" y="370" as="targetPoint"/>
                    </mxGeometry>
                </mxCell>
                <mxCell id="104" value="can_app_\&lt;br&gt;send_motor()" style="rounded=0;whiteSpace=wrap;html=1;fontSize=12;fillColor=none;" vertex="1" parent="WIyWlLk6GJQsqaUBKTNV-1">
                    <mxGeometry x="870" y="340" width="120" height="60" as="geometry"/>
                </mxCell>
                <mxCell id="106" value="can_app_\&lt;br&gt;extractor_\&lt;br&gt;mic19_motor()" style="rounded=0;whiteSpace=wrap;html=1;fontSize=12;fillColor=none;" vertex="1" parent="WIyWlLk6GJQsqaUBKTNV-1">
                    <mxGeometry x="1160" y="340" width="120" height="60" as="geometry"/>
                </mxCell>
                <mxCell id="110" value="CAN_MSG_\&lt;br&gt;MAM17_\&lt;br&gt;CONTACTOR_REQUEST" style="edgeStyle=none;rounded=1;sketch=0;html=1;exitX=1;exitY=0.5;exitDx=0;exitDy=0;fontSize=12;" edge="1" parent="WIyWlLk6GJQsqaUBKTNV-1" source="106" target="109">
                    <mxGeometry relative="1" as="geometry">
                        <mxPoint x="1267" y="510" as="sourcePoint"/>
                    </mxGeometry>
                </mxCell>
                <mxCell id="117" style="edgeStyle=none;rounded=1;sketch=0;html=1;exitX=0.5;exitY=1;exitDx=0;exitDy=0;fontSize=12;" edge="1" parent="WIyWlLk6GJQsqaUBKTNV-1" source="109" target="111">
                    <mxGeometry relative="1" as="geometry"/>
                </mxCell>
                <mxCell id="109" value="can_app_\&lt;br&gt;extractor_\&lt;br&gt;mam17_\&lt;br&gt;contactor_request()" style="rounded=0;whiteSpace=wrap;html=1;fontSize=12;fillColor=none;" vertex="1" parent="WIyWlLk6GJQsqaUBKTNV-1">
                    <mxGeometry x="1500" y="340" width="120" height="60" as="geometry"/>
                </mxCell>
                <mxCell id="118" style="edgeStyle=none;rounded=1;sketch=0;html=1;exitX=0.5;exitY=1;exitDx=0;exitDy=0;fontSize=12;" edge="1" parent="WIyWlLk6GJQsqaUBKTNV-1" source="111" target="113">
                    <mxGeometry relative="1" as="geometry"/>
                </mxCell>
                <mxCell id="111" value="execute task" style="rounded=0;whiteSpace=wrap;html=1;fontSize=12;fillColor=none;" vertex="1" parent="WIyWlLk6GJQsqaUBKTNV-1">
                    <mxGeometry x="1500" y="460" width="120" height="60" as="geometry"/>
                </mxCell>
                <mxCell id="116" value="CAN_MSG_\&lt;br&gt;MAC22_\&lt;br&gt;CONTACTOR_RESPONSE" style="edgeStyle=none;rounded=1;sketch=0;html=1;exitX=0;exitY=0.5;exitDx=0;exitDy=0;fontSize=12;" edge="1" parent="WIyWlLk6GJQsqaUBKTNV-1" source="113" target="115">
                    <mxGeometry relative="1" as="geometry"/>
                </mxCell>
                <mxCell id="113" value="task done" style="rounded=0;whiteSpace=wrap;html=1;fontSize=12;fillColor=none;" vertex="1" parent="WIyWlLk6GJQsqaUBKTNV-1">
                    <mxGeometry x="1500" y="570" width="120" height="60" as="geometry"/>
                </mxCell>
                <mxCell id="114" value="" style="endArrow=none;dashed=1;html=1;dashPattern=1 3;strokeWidth=2;rounded=1;sketch=0;fontSize=20;" edge="1" parent="WIyWlLk6GJQsqaUBKTNV-1" source="115" target="106">
                    <mxGeometry width="50" height="50" relative="1" as="geometry">
                        <mxPoint x="1220" y="680" as="sourcePoint"/>
                        <mxPoint x="1220" y="550" as="targetPoint"/>
                    </mxGeometry>
                </mxCell>
                <mxCell id="122" style="edgeStyle=orthogonalEdgeStyle;rounded=1;sketch=0;html=1;exitX=0.5;exitY=1;exitDx=0;exitDy=0;fontSize=12;" edge="1" parent="WIyWlLk6GJQsqaUBKTNV-1" source="115" target="121">
                    <mxGeometry relative="1" as="geometry"/>
                </mxCell>
                <mxCell id="115" value="can_app_\&lt;br&gt;extractor_\&lt;br&gt;mac22_response()" style="rounded=0;whiteSpace=wrap;html=1;fontSize=12;fillColor=none;" vertex="1" parent="WIyWlLk6GJQsqaUBKTNV-1">
                    <mxGeometry x="1160" y="570" width="120" height="60" as="geometry"/>
                </mxCell>
                <mxCell id="120" style="edgeStyle=orthogonalEdgeStyle;rounded=1;sketch=0;html=1;exitX=1;exitY=0.25;exitDx=0;exitDy=0;fontSize=12;entryX=0.75;entryY=0;entryDx=0;entryDy=0;" edge="1" parent="WIyWlLk6GJQsqaUBKTNV-1" source="111" target="111">
                    <mxGeometry relative="1" as="geometry">
                        <mxPoint x="1604" y="440" as="targetPoint"/>
                        <Array as="points">
                            <mxPoint x="1640" y="475"/>
                            <mxPoint x="1640" y="430"/>
                            <mxPoint x="1590" y="430"/>
                        </Array>
                    </mxGeometry>
                </mxCell>
                <mxCell id="121" value="set_state_idle()" style="rounded=0;whiteSpace=wrap;html=1;fontSize=12;fillColor=none;" vertex="1" parent="WIyWlLk6GJQsqaUBKTNV-1">
                    <mxGeometry x="1160" y="720" width="120" height="60" as="geometry"/>
                </mxCell>
                <mxCell id="123" style="edgeStyle=orthogonalEdgeStyle;rounded=1;sketch=0;html=1;exitX=1;exitY=0.25;exitDx=0;exitDy=0;fontSize=12;entryX=0.75;entryY=0;entryDx=0;entryDy=0;" edge="1" parent="WIyWlLk6GJQsqaUBKTNV-1" source="106" target="106">
                    <mxGeometry relative="1" as="geometry">
                        <mxPoint x="1283" y="355" as="sourcePoint"/>
                        <mxPoint x="1253" y="340" as="targetPoint"/>
                        <Array as="points">
                            <mxPoint x="1300" y="355"/>
                            <mxPoint x="1300" y="310"/>
                            <mxPoint x="1250" y="310"/>
                        </Array>
                    </mxGeometry>
                </mxCell>
                <mxCell id="124" style="edgeStyle=orthogonalEdgeStyle;rounded=1;sketch=0;html=1;exitX=1;exitY=0.25;exitDx=0;exitDy=0;fontSize=12;entryX=0.75;entryY=0;entryDx=0;entryDy=0;" edge="1" parent="WIyWlLk6GJQsqaUBKTNV-1" source="104" target="104">
                    <mxGeometry relative="1" as="geometry">
                        <mxPoint x="994" y="355" as="sourcePoint"/>
                        <mxPoint x="964" y="340" as="targetPoint"/>
                        <Array as="points">
                            <mxPoint x="1010" y="355"/>
                            <mxPoint x="1010" y="310"/>
                            <mxPoint x="960" y="310"/>
                        </Array>
                    </mxGeometry>
                </mxCell>
                <mxCell id="125" style="edgeStyle=orthogonalEdgeStyle;rounded=1;sketch=0;html=1;exitX=1;exitY=0.25;exitDx=0;exitDy=0;fontSize=12;entryX=0.75;entryY=0;entryDx=0;entryDy=0;" edge="1" parent="WIyWlLk6GJQsqaUBKTNV-1" source="115" target="115">
                    <mxGeometry relative="1" as="geometry">
                        <mxPoint x="1280" y="585" as="sourcePoint"/>
                        <mxPoint x="1250" y="570" as="targetPoint"/>
                        <Array as="points">
                            <mxPoint x="1300" y="585"/>
                            <mxPoint x="1300" y="540"/>
                            <mxPoint x="1250" y="540"/>
                        </Array>
                    </mxGeometry>
                </mxCell>
                <mxCell id="126" value="MAM17/MAC22 COMMUNICATION DIAGRAM" style="text;html=1;strokeColor=none;fillColor=none;align=center;verticalAlign=middle;whiteSpace=wrap;rounded=0;fontSize=20;fontStyle=1" vertex="1" parent="WIyWlLk6GJQsqaUBKTNV-1">
                    <mxGeometry x="990" y="170" width="470" height="30" as="geometry"/>
                </mxCell>
            </root>
        </mxGraphModel>
    </diagram>
</mxfile>